<?xml version="1.0" encoding="UTF-8" standalone="no"?>
<svg
   xmlns:dc="http://purl.org/dc/elements/1.1/"
   xmlns:cc="http://creativecommons.org/ns#"
   xmlns:rdf="http://www.w3.org/1999/02/22-rdf-syntax-ns#"
   xmlns:svg="http://www.w3.org/2000/svg"
   xmlns="http://www.w3.org/2000/svg"
   xmlns:sodipodi="http://sodipodi.sourceforge.net/DTD/sodipodi-0.dtd"
   xmlns:inkscape="http://www.inkscape.org/namespaces/inkscape"
   version="1.1"
   width="1000"
   height="1000"
   viewBox="0 0 1000 1000"
   xml:space="preserve"
   id="svg96"
   sodipodi:docname="icon-selected.svg"
   inkscape:version="0.92.4 (5da689c313, 2019-01-14)"><metadata
   id="metadata100"><rdf:RDF><cc:Work
       rdf:about=""><dc:format>image/svg+xml</dc:format><dc:type
         rdf:resource="http://purl.org/dc/dcmitype/StillImage" /><dc:title></dc:title></cc:Work></rdf:RDF></metadata><sodipodi:namedview
   pagecolor="#ffffff"
   bordercolor="#666666"
   borderopacity="1"
   objecttolerance="10"
   gridtolerance="10"
   guidetolerance="10"
   inkscape:pageopacity="0"
   inkscape:pageshadow="2"
   inkscape:window-width="2880"
   inkscape:window-height="1706"
   id="namedview98"
   showgrid="false"
   inkscape:zoom="1.0486394"
   inkscape:cx="-195.42757"
   inkscape:cy="609.46045"
   inkscape:window-x="5749"
   inkscape:window-y="-11"
   inkscape:window-maximized="1"
   inkscape:current-layer="svg96" />
<desc
   id="desc56">Created with Fabric.js 3.5.0</desc>
<defs
   id="defs58">
</defs>
<rect
   x="0"
   y="0"
   width="100%"
   height="100%"
   fill="rgba(255,255,255,0)"
   id="rect60" />
<g
   transform="matrix(4.3917 0 0 4.3917 499.9967 499.9955)"
   id="521649">
<g
   style=""
   id="g70"
   vector-effect="non-scaling-stroke">
		<g
   transform="matrix(1 0 0 1 -0.1 -0.15)"
   id="g64"
   style="fill:#ffcc00">
<path
   style="stroke:none;stroke-width:1;stroke-dasharray:none;stroke-linecap:butt;stroke-dashoffset:0;stroke-linejoin:miter;stroke-miterlimit:4;is-custom-font:none;font-file-url:none;fill:#ffcc00;fill-rule:nonzero;opacity:1"
   transform=" translate(-75.9, -103.35)"
   d="M 74.5 205.6 a 256.08 256.08 0 0 1 -37.1 -36.5 C 12.9 139.6 0 109.8 0 82.6 C 0 34.2 34.1 0 75.9 0 s 75.9 34.2 75.9 82.6 c 0 27.1 -12.9 57 -37.4 86.5 a 256.08 256.08 0 0 1 -37.1 36.5 l -1.4 1.1 Z"
   id="path62"
   stroke-linecap="round" />
</g>
		<g
   transform="matrix(1 0 0 1 -0.1 -29.6)"
   id="g68">
<circle
   style="stroke: none; stroke-width: 1; stroke-dasharray: none; stroke-linecap: butt; stroke-dashoffset: 0; stroke-linejoin: miter; stroke-miterlimit: 4; is-custom-font: none; font-file-url: none; fill: rgb(255,255,255); fill-rule: nonzero; opacity: 1;"
   cx="0"
   cy="0"
   r="36.225"
   id="circle66" />
</g>
</g>
</g>
<g
   transform="matrix(1.079 0 0 1 450.0555 395.418)"
   id="336584"
   clip-path="url(#CLIPPATH_6)"
   style="fill:#ffcc00">
<clipPath
   id="CLIPPATH_6">
	<rect
   transform="matrix(1 0 0 1 -0.0001 0.0002)"
   id="clip0_302_86"
   x="-78.5"
   y="-78.5"
   rx="0"
   ry="0"
   width="157"
   height="157" />
</clipPath>
<path
   style="stroke:none;stroke-width:1;stroke-dasharray:none;stroke-linecap:butt;stroke-dashoffset:0;stroke-linejoin:miter;stroke-miterlimit:4;is-custom-font:none;font-file-url:none;fill:#ffcc00;fill-rule:nonzero;opacity:1"
   vector-effect="non-scaling-stroke"
   transform=" translate(-78.5001, -78.4998)"
   d="M 78.5257 37.6058 C 35.1715 37.5919 0.0145857 72.7263 0.000957255 116.08 C 0.00000643565 116.126 0.00000643565 116.171 0.000957255 116.217 C 0.0386731 118.009 1.52195 119.431 3.31393 119.393 H 153.755 C 155.558 119.356 157.001 117.884 157 116.08 C 156.986 72.7459 121.86 37.6198 78.5257 37.6058 Z"
   stroke-linecap="round"
   id="path75" />
</g>
<g
   transform="matrix(1.079 0 0 1 544.468 395.418)"
   id="610160"
   clip-path="url(#CLIPPATH_7)">
<clipPath
   id="CLIPPATH_7">
	<rect
   transform="matrix(1 0 0 1 -0.0001 0.0002)"
   id="rect78"
   x="-78.5"
   y="-78.5"
   rx="0"
   ry="0"
   width="157"
   height="157" />
</clipPath>
<path
   style="stroke:none;stroke-width:1;stroke-dasharray:none;stroke-linecap:butt;stroke-dashoffset:0;stroke-linejoin:miter;stroke-miterlimit:4;is-custom-font:none;font-file-url:none;fill:#ffcc00;fill-rule:nonzero;opacity:1"
   vector-effect="non-scaling-stroke"
   transform=" translate(-78.5001, -78.4998)"
   d="M 78.5257 37.6058 C 35.1715 37.5919 0.0145857 72.7263 0.000957255 116.08 C 0.00000643565 116.126 0.00000643565 116.171 0.000957255 116.217 C 0.0386731 118.009 1.52195 119.431 3.31393 119.393 H 153.755 C 155.558 119.356 157.001 117.884 157 116.08 C 156.986 72.7459 121.86 37.6198 78.5257 37.6058 Z"
   stroke-linecap="round"
   id="path81" />
</g>
<g
   transform="matrix(0.915 0 0 0.915 494.5905 341.1704)"
   id="714329">
<path
   style="stroke: none; stroke-width: 1; stroke-dasharray: none; stroke-linecap: butt; stroke-dashoffset: 0; stroke-linejoin: miter; stroke-miterlimit: 4; is-custom-font: none; font-file-url: none; fill: rgb(255,255,255); fill-rule: nonzero; opacity: 1;"
   vector-effect="non-scaling-stroke"
   transform=" translate(-79, -78.5002)"
   d="M 154.666 37.5934 H 3.33409 C 1.49273 37.5934 0 39.0767 0 40.9067 C 0.0749556 84.2303 35.4007 119.332 79 119.407 C 122.615 119.369 157.962 84.2455 158 40.9067 C 158 39.0767 156.507 37.5934 154.666 37.5934 Z"
   stroke-linecap="round"
   id="path84" />
</g>
<g
   transform="matrix(0.597 0 0 0.597 443.9963 396.0163)"
   id="266522"
   style="fill:#ffcc00">
<path
   style="stroke:none;stroke-width:1;stroke-dasharray:none;stroke-linecap:butt;stroke-dashoffset:0;stroke-linejoin:miter;stroke-miterlimit:4;is-custom-font:none;font-file-url:none;fill:#ffcc00;fill-rule:nonzero;opacity:1"
   vector-effect="non-scaling-stroke"
   transform=" translate(-67.5, -67.5)"
   d="M 67.5 135 C 104.779 135 135 104.779 135 67.5 C 135 30.2208 104.779 0 67.5 0 C 30.2208 0 0 30.2208 0 67.5 C 0 104.779 30.2208 135 67.5 135 Z"
   stroke-linecap="round"
   id="path87" />
</g>
<g
   transform="matrix(0.5855 0 0 0.5855 555.3717 394.0453)"
   id="931834"
   style="fill:#ffcc00">
<path
   style="stroke:none;stroke-width:1;stroke-dasharray:none;stroke-linecap:butt;stroke-dashoffset:0;stroke-linejoin:miter;stroke-miterlimit:4;is-custom-font:none;font-file-url:none;fill:#ffcc00;fill-rule:nonzero;opacity:1"
   vector-effect="non-scaling-stroke"
   transform=" translate(-67.5, -67.5)"
   d="M 67.5 135 C 104.779 135 135 104.779 135 67.5 C 135 30.2208 104.779 0 67.5 0 C 30.2208 0 0 30.2208 0 67.5 C 0 104.779 30.2208 135 67.5 135 Z"
   stroke-linecap="round"
   id="path90" />
</g>
<g
   transform="matrix(0.3583 0 0 0.3131 499.4226 364.9927)"
   id="324342">
<path
   style="stroke: none; stroke-width: 1; stroke-dasharray: none; stroke-linecap: butt; stroke-dashoffset: 0; stroke-linejoin: miter; stroke-miterlimit: 4; is-custom-font: none; font-file-url: none; fill: rgb(255,255,255); fill-rule: nonzero; opacity: 1;"
   vector-effect="non-scaling-stroke"
   transform=" translate(-67.5, -67.5)"
   d="M 67.5 135 C 104.779 135 135 104.779 135 67.5 C 135 30.2208 104.779 0 67.5 0 C 30.2208 0 0 30.2208 0 67.5 C 0 104.779 30.2208 135 67.5 135 Z"
   stroke-linecap="round"
   id="path93" />
</g>
</svg>