<svg xmlns="http://www.w3.org/2000/svg" viewBox="0 0 152 207"><path d="M74.5,205.6a256.08,256.08,0,0,1-37.1-36.5C12.9,139.6,0,109.8,0,82.6,0,34.2,34.1,0,75.9,0s75.9,34.2,75.9,82.6c0,27.1-12.9,57-37.4,86.5a256.08,256.08,0,0,1-37.1,36.5l-1.4,1.1Z" transform="translate(0 0)" style="fill:#97141b"/><circle cx="75.9" cy="73.9" r="48.5" style="fill:#fff"/><path d="M81.947,65.739c.21-.776.388-1.552.551-2.266a41.821,41.821,0,0,0,.776-4.227H93.63c-.225,1.737-.427,2.816-.714,4.181a64.719,64.719,0,0,1-3.1,10.333Zm-11.31,4.126L68.38,66.832l-1-1.334-.908,1.4-5.538,8.533A90.11,90.11,0,0,1,56.72,63.582c-.38-1.551-.659-2.645-1-4.321H66.944l1.622,4.755,2.079,5.842ZM80.659,56.228,80.543,57a58.121,58.121,0,0,1-.993,5.771c-.132.567-.271,1.141-.419,1.73l-2.087-2.133-3.816,5.694L71.428,63,69.1,56.213H52.035l.194,1.1A68.047,68.047,0,0,0,53.78,64.3a102.513,102.513,0,0,0,6.152,16.29,147.561,147.561,0,0,0,6.981,13.09c1.342,2.328,2.328,3.739,4.515,7.044l.279.411h8l.279-.419A71.146,71.146,0,0,0,84.2,93.735a121.8,121.8,0,0,0,6.322-13.707,81.514,81.514,0,0,0,5.368-16,60.027,60.027,0,0,0,1.032-6.787l.116-1.032Z" transform="translate(0 0)" style="fill:#97141b"/></svg>