<?xml version="1.0" standalone="no"?>
<!DOCTYPE svg PUBLIC "-//W3C//DTD SVG 20010904//EN"
 "http://www.w3.org/TR/2001/REC-SVG-20010904/DTD/svg10.dtd">
<svg version="1.0" xmlns="http://www.w3.org/2000/svg"
 width="300.000000pt" height="300.000000pt" viewBox="0 0 300.000000 300.000000"
 preserveAspectRatio="xMidYMid meet">
<metadata>
Created by potrace 1.14, written by Peter Selinger 2001-2017
</metadata>
<g transform="translate(0.000000,300.000000) scale(0.100000,-0.100000)"
fill="#000000" stroke="none">
<path d="M350 2993 c-44 -8 -164 -70 -202 -105 -54 -49 -105 -131 -128 -205
-19 -63 -20 -91 -20 -1181 0 -1212 -2 -1166 56 -1272 54 -98 141 -169 259
-210 57 -20 80 -20 1209 -17 l1151 2 77 38 c96 47 165 114 209 203 l34 69 0
1190 0 1190 -35 64 c-48 89 -119 157 -210 200 l-75 36 -1150 1 c-632 1 -1161
-1 -1175 -3z"/>
</g>
</svg>
